solid OpenSCAD_Model
  facet normal -0.5 0 0.866025
    outer loop
      vertex -0.05 100 0.0866025
      vertex 865.975 0 500.087
      vertex 865.975 100 500.087
    endloop
  endfacet
  facet normal -0.5 0 0.866025
    outer loop
      vertex 865.975 0 500.087
      vertex -0.05 100 0.0866025
      vertex -0.05 0 0.0866025
    endloop
  endfacet
  facet normal 0.5 0 -0.866025
    outer loop
      vertex 0 0 0
      vertex 866.025 100 500
      vertex 866.025 0 500
    endloop
  endfacet
  facet normal 0.5 0 -0.866025
    outer loop
      vertex 866.025 100 500
      vertex 0 0 0
      vertex 0 100 0
    endloop
  endfacet
  facet normal 0 -1 0
    outer loop
      vertex -0.05 0 0.0866025
      vertex 866.025 0 500
      vertex 865.975 0 500.087
    endloop
  endfacet
  facet normal 0 -1 0
    outer loop
      vertex 866.025 0 500
      vertex -0.05 0 0.0866025
      vertex 0 0 0
    endloop
  endfacet
  facet normal 0.866094 -0 0.499881
    outer loop
      vertex 865.975 0 500.087
      vertex 866.025 100 500
      vertex 865.975 100 500.087
    endloop
  endfacet
  facet normal 0.866094 0 0.499881
    outer loop
      vertex 866.025 100 500
      vertex 865.975 0 500.087
      vertex 866.025 0 500
    endloop
  endfacet
  facet normal 0 1 0
    outer loop
      vertex 866.025 100 500
      vertex -0.05 100 0.0866025
      vertex 865.975 100 500.087
    endloop
  endfacet
  facet normal -0 1 0
    outer loop
      vertex -0.05 100 0.0866025
      vertex 866.025 100 500
      vertex 0 100 0
    endloop
  endfacet
  facet normal -0.866025 0 -0.5
    outer loop
      vertex 0 0 0
      vertex -0.05 100 0.0866025
      vertex 0 100 0
    endloop
  endfacet
  facet normal -0.866025 -0 -0.5
    outer loop
      vertex -0.05 100 0.0866025
      vertex 0 0 0
      vertex -0.05 0 0.0866025
    endloop
  endfacet
endsolid OpenSCAD_Model
